<svg width="134" height="64" viewBox="0 0 134 64" fill="none" xmlns="http://www.w3.org/2000/svg">
<g id="Group 25">
<path id="Vector" d="M108.783 38.7972V55.989L103.589 63.7109H91.1572V55.985H99.2966L100.861 53.6596V40.89L91.1572 21.0961V7.7051L96.3402 -0.000766754H107.803V7.72514H100.636L99.0796 10.0385V19.0033L108.783 38.7972Z" fill="#1E503F"/>
<path id="Vector_2" d="M84.852 -0.000766754V55.9409L84.8258 55.985L80.0918 63.7109H66.2305L61.5303 56.0412V-0.000766754H69.4526V53.9363L70.7063 55.985H75.6124L76.9296 53.836V-0.000766754H84.852Z" fill="#1E503F"/>
<path id="Vector_3" d="M46.6913 53.836L45.3741 55.985H40.468L39.2143 53.9363V9.87453L40.5316 7.72555H45.4377L46.6913 9.7743V53.836ZM49.9134 -0.000362396H36.0521L31.3182 7.72555H31.292V7.76965V56.0412L35.9923 63.7109H49.8535L54.5875 55.985H54.6137V55.9409V7.66942L49.9134 -0.000362396Z" fill="#1E503F"/>
<path id="Vector_4" d="M16.2024 27.2784H7.83402V0.000785828H0V63.7129H7.83402V34.9085H16.2024V63.7129H24.0365V0.000785828H16.2024V27.2784Z" fill="#1E503F"/>
<path id="Vector_5" d="M123.115 34.7181H131.84V27.4697H123.115V7.7263H133.086V0.000785828H123.115H115.281V7.7263V55.9874V63.7129H123.115H133.264V55.9874H123.115V34.7181Z" fill="#1E503F"/>
</g>
</svg>
