<svg width="30" height="30" viewBox="0 0 30 30" fill="none" xmlns="http://www.w3.org/2000/svg">
<path d="M17.1612 4.38755L19.3612 8.78755C19.6612 9.40005 20.4612 9.98755 21.1362 10.1L25.1237 10.7625C27.6737 11.1875 28.2737 13.0375 26.4362 14.8625L23.3362 17.9625C22.8112 18.4875 22.5237 19.5 22.6862 20.225L23.5737 24.0625C24.2737 27.1 22.6612 28.275 19.9737 26.6875L16.2362 24.475C15.5612 24.0751 14.4487 24.0751 13.7612 24.475L10.0237 26.6875C7.34867 28.275 5.72367 27.0875 6.42367 24.0625L7.31117 20.225C7.47367 19.5 7.18617 18.4875 6.66117 17.9625L3.56117 14.8625C1.73617 13.0375 2.32367 11.1875 4.87367 10.7625L8.86117 10.1C9.52367 9.98755 10.3237 9.40005 10.6237 8.78755L12.8237 4.38755C14.0237 2.00005 15.9737 2.00005 17.1612 4.38755Z" fill="#F7C248"/>
</svg>
