<svg width="30" height="30" viewBox="0 0 30 30" fill="none" xmlns="http://www.w3.org/2000/svg">
<g id="vuesax/linear/profile">
<g id="profile">
<path id="Vector" d="M15.2 13.5874C15.075 13.5749 14.925 13.5749 14.7875 13.5874C11.8125 13.4874 9.44995 11.0499 9.44995 8.0499C9.44995 4.9874 11.925 2.4999 15 2.4999C18.0625 2.4999 20.55 4.9874 20.55 8.0499C20.5375 11.0499 18.175 13.4874 15.2 13.5874Z" stroke="black" stroke-width="1.5" stroke-linecap="round" stroke-linejoin="round"/>
<path id="Vector_2" d="M8.95002 18.2001C5.92502 20.2251 5.92502 23.5251 8.95002 25.5376C12.3875 27.8376 18.025 27.8376 21.4625 25.5376C24.4875 23.5126 24.4875 20.2126 21.4625 18.2001C18.0375 15.9126 12.4 15.9126 8.95002 18.2001Z" stroke="black" stroke-width="1.5" stroke-linecap="round" stroke-linejoin="round"/>
</g>
</g>
</svg>
